2011-0325
USB web cam
name : 鐵頭III Windows7版網路攝影機
type : KTCCD3051
url : http://www.ktnet.com.tw
price : NTD 250


$ dmesg

[26817.935046] usb 3-3: new high speed USB device using ehci_hcd and address 5
[26818.060937] usb 3-3: New USB device found, idVendor=1e4e, idProduct=0100
[26818.060947] usb 3-3: New USB device strings: Mfr=1, Product=2, SerialNumber=0
[26818.060954] usb 3-3: Product: USB2.0 Camera
[26818.060958] usb 3-3: Manufacturer: Etron Technologies
[26818.166254] uvcvideo: Found UVC 1.00 device USB2.0 Camera (1e4e:0100)
[26818.171176] uvcvideo: UVC non compliance - GET_DEF(PROBE) not supported. Enabling workaround.
[26818.172442] input: USB2.0 Camera as /devices/pci0000:00/0000:00:16.2/usb3/3-3/3-3:1.0/input/input6
[26818.172599] usbcore: registered new interface driver uvcvideo
[26818.172604] USB Video Class driver (v1.0.0)

[lin@localhost cmarsh]$ lsusb

Bus 007 Device 001: ID 1d6b:0001 Linux Foundation 1.1 root hub
Bus 006 Device 001: ID 1d6b:0001 Linux Foundation 1.1 root hub
Bus 005 Device 001: ID 1d6b:0001 Linux Foundation 1.1 root hub
Bus 004 Device 002: ID 046d:c51b Logitech, Inc. V220 Cordless Optical Mouse for Notebooks
Bus 004 Device 001: ID 1d6b:0001 Linux Foundation 1.1 root hub
Bus 003 Device 005: ID 1e4e:0100  
Bus 003 Device 001: ID 1d6b:0002 Linux Foundation 2.0 root hub
Bus 002 Device 002: ID 1307:0330 Transcend Information, Inc. 
Bus 002 Device 001: ID 1d6b:0002 Linux Foundation 2.0 root hub
Bus 001 Device 004: ID 05ac:0220 Apple, Inc. Aluminum Keyboard (ANSI)
Bus 001 Device 003: ID 05ac:1006 Apple, Inc. Hub in Aluminum Keyboard
Bus 001 Device 001: ID 1d6b:0002 Linux Foundation 2.0 root hub


$ ls /dev/video*
/dev/video0

$ v4l-info 

### v4l2 device info [/dev/video0] ###
general info
    VIDIOC_QUERYCAP
	driver                  : "uvcvideo"
	card                    : "USB2.0 Camera"
	bus_info                : "usb-0000:00:16.2-3"
	version                 : 1.0.0
	capabilities            : 0x4000001 [VIDEO_CAPTURE,STREAMING]

standards

inputs
    VIDIOC_ENUMINPUT(0)
	index                   : 0
	name                    : "Camera 1"
	type                    : CAMERA
	audioset                : 0
	tuner                   : 0
	std                     : 0x0 []
	status                  : 0x0 []

video capture
    VIDIOC_ENUM_FMT(0,VIDEO_CAPTURE)
	index                   : 0
	type                    : VIDEO_CAPTURE
	flags                   : 0
	description             : "YUV 4:2:2 (YUYV)"
	pixelformat             : 0x56595559 [YUYV]
    VIDIOC_G_FMT(VIDEO_CAPTURE)
	type                    : VIDEO_CAPTURE
	fmt.pix.width           : 320
	fmt.pix.height          : 240
	fmt.pix.pixelformat     : 0x56595559 [YUYV]
	fmt.pix.field           : NONE
	fmt.pix.bytesperline    : 640
	fmt.pix.sizeimage       : 153600
	fmt.pix.colorspace      : SRGB
	fmt.pix.priv            : 0

controls
    VIDIOC_QUERYCTRL(BASE+0)
	id                      : 9963776
	type                    : INTEGER
	name                    : "Brightness"
	minimum                 : -127
	maximum                 : 127
	step                    : 1
	default_value           : 20
	flags                   : 0
    VIDIOC_QUERYCTRL(BASE+1)
	id                      : 9963777
	type                    : INTEGER
	name                    : "Contrast"
	minimum                 : 0
	maximum                 : 127
	step                    : 1
	default_value           : 64
	flags                   : 0
    VIDIOC_QUERYCTRL(BASE+2)
	id                      : 9963778
	type                    : INTEGER
	name                    : "Saturation"
	minimum                 : 0
	maximum                 : 255
	step                    : 1
	default_value           : 64
	flags                   : 0
    VIDIOC_QUERYCTRL(BASE+3)
	id                      : 9963779
	type                    : INTEGER
	name                    : "Hue"
	minimum                 : -16000
	maximum                 : 16000
	step                    : 1
	default_value           : 0
	flags                   : 0


$ guvcview -v
guvcview 1.4.4
video_device: /dev/video0
vid_sleep: 0
cap_meth: 1
resolution: 320 x 240
windowsize: 512 x 700
vert pane: 578
spin behavior: 0
mode: yv12
fps: 0/0
Display Fps: 1
bpp: 32
hwaccel: 1
avi_format: 0
sound: 1
sound Device: 0
sound samp rate: 0
sound Channels: 0
Sound delay: 0 nanosec
Sound Format: 80 
Pan Step: 2 degrees
Tilt Step: 2 degrees
Video Filter Flags: 0
image inc: 0
profile(default):/home/lin/default.gpfl
starting portaudio...
Cannot connect to server socket err = 沒有此一檔案或目錄
Cannot connect to server socket
jack server is not running or cannot be started
language catalog=> dir:/usr/share/locale type:UTF-8 lang:zh_TW.utf8 cat:guvcview.mo
yv12: setting format to 842094169
capture method = 1
video device: /dev/video0 
Device Node Path: /dev/video0
  VID/PID: 1e4e 0100
  Etron Technologies
  USB2.0 Camera
  serial: (null)
Init. USB2.0 Camera (location: usb-0000:00:16.2-3)
{ pixelformat = 'YUYV', description = 'YUV 4:2:2 (YUYV)' }
{ discrete: width = 320, height = 240 }
	Time interval between frame: 1/30, 
{ discrete: width = 176, height = 144 }
	Time interval between frame: 1/30, 
{ discrete: width = 160, height = 120 }
	Time interval between frame: 1/30, 
{ pixelformat = 'RGB3', description = 'RGB3' }
{ discrete: width = 320, height = 240 }
	Time interval between frame: 1/30, 
{ discrete: width = 176, height = 144 }
	Time interval between frame: 1/30, 
{ discrete: width = 160, height = 120 }
	Time interval between frame: 1/30, 
{ pixelformat = 'BGR3', description = 'BGR3' }
{ discrete: width = 320, height = 240 }
	Time interval between frame: 1/30, 
{ discrete: width = 176, height = 144 }
	Time interval between frame: 1/30, 
{ discrete: width = 160, height = 120 }
	Time interval between frame: 1/30, 
{ pixelformat = 'YU12', description = 'YU12' }
{ discrete: width = 320, height = 240 }
	Time interval between frame: 1/30, 
{ discrete: width = 176, height = 144 }
	Time interval between frame: 1/30, 
{ discrete: width = 160, height = 120 }
	Time interval between frame: 1/30, 
{ pixelformat = 'YV12', description = 'YV12' }
{ discrete: width = 320, height = 240 }
	Time interval between frame: 1/30, 
{ discrete: width = 176, height = 144 }
	Time interval between frame: 1/30, 
{ discrete: width = 160, height = 120 }
	Time interval between frame: 1/30, 
vid:1e4e 
pid:0100 
driver:uvcvideo
checking format: 842094169
fps is set to 1/30
drawing controls

control[0]: 0x980900  Brightness, -127:127:1, default 20
control[0]: 0x980901  Contrast, 0:127:1, default 64
control[0]: 0x980902  Saturation, 0:255:1, default 64
control[0]: 0x980903  Hue, -16000:16000:1, default 0
control[0]: 0x980910  Gamma, 16:500:1, default 100
control[0]: 0x98091b  Sharpness, 0:31:1, default 2
resolutions of format(5) = 3 
frame rates of 1º resolution=1 
fps is set to 1/30
Def. Res: 0  numb. fps:1
--------------------------------------- device #0
Name                     = HDA ATI SB: ALC662 rev1 Analog (hw:0,0)
Host API                 = ALSA
Max inputs = 2, Max outputs = 2
Def. low input latency   =    0.012
Def. low output latency  =    0.012
Def. high input latency  =    0.046
Def. high output latency =    0.046
Def. sample rate         = 44100.00
--------------------------------------- device #1
Name                     = HDA ATI SB: ALC662 rev1 Digital (hw:0,1)
Host API                 = ALSA
Max inputs = 0, Max outputs = 2
Def. low input latency   =   -1.000
Def. low output latency  =    0.012
Def. high input latency  =   -1.000
Def. high output latency =    0.046
Def. sample rate         = 44100.00
--------------------------------------- device #2
Name                     = HDA ATI HDMI: ATI HDMI (hw:1,3)
Host API                 = ALSA
Max inputs = 0, Max outputs = 2
Def. low input latency   =   -1.000
Def. low output latency  =    0.012
Def. high input latency  =   -1.000
Def. high output latency =    0.046
Def. sample rate         = 44100.00
--------------------------------------- device #3
Name                     = front
Host API                 = ALSA
Max inputs = 0, Max outputs = 2
Def. low input latency   =   -1.000
Def. low output latency  =    0.012
Def. high input latency  =   -1.000
Def. high output latency =    0.046
Def. sample rate         = 44100.00
--------------------------------------- device #4
Name                     = surround40
Host API                 = ALSA
Max inputs = 0, Max outputs = 2
Def. low input latency   =   -1.000
Def. low output latency  =    0.012
Def. high input latency  =   -1.000
Def. high output latency =    0.046
Def. sample rate         = 44100.00
--------------------------------------- device #5
Name                     = surround51
Host API                 = ALSA
Max inputs = 0, Max outputs = 2
Def. low input latency   =   -1.000
Def. low output latency  =    0.012
Def. high input latency  =   -1.000
Def. high output latency =    0.046
Def. sample rate         = 44100.00
--------------------------------------- device #6
Name                     = surround71
Host API                 = ALSA
Max inputs = 0, Max outputs = 2
Def. low input latency   =   -1.000
Def. low output latency  =    0.012
Def. high input latency  =   -1.000
Def. high output latency =    0.046
Def. sample rate         = 44100.00
--------------------------------------- device #7
Name                     = iec958
Host API                 = ALSA
Max inputs = 0, Max outputs = 2
Def. low input latency   =   -1.000
Def. low output latency  =    0.012
Def. high input latency  =   -1.000
Def. high output latency =    0.046
Def. sample rate         = 44100.00
--------------------------------------- device #8
Name                     = spdif
Host API                 = ALSA
Max inputs = 0, Max outputs = 2
Def. low input latency   =   -1.000
Def. low output latency  =    0.012
Def. high input latency  =   -1.000
Def. high output latency =    0.046
Def. sample rate         = 44100.00
--------------------------------------- device #9
Name                     = pulse
Host API                 = ALSA
Max inputs = 32, Max outputs = 32
Def. low input latency   =    0.012
Def. low output latency  =    0.012
Def. high input latency  =    0.046
Def. high output latency =    0.046
Def. sample rate         = 44100.00
--------------------------------------- device #10
Name                     = dmix
Host API                 = ALSA
Max inputs = 0, Max outputs = 2
Def. low input latency   =   -1.000
Def. low output latency  =    0.043
Def. high input latency  =   -1.000
Def. high output latency =    0.043
Def. sample rate         = 48000.00
--------------------------------------- device #11
[ Default Input, Default Output ]
Name                     = default
Host API                 = ALSA
Max inputs = 32, Max outputs = 32
Def. low input latency   =    0.012
Def. low output latency  =    0.012
Def. high input latency  =    0.046
Def. high output latency =    0.046
Def. sample rate         = 44100.00
----------------------------------------------
SampleRate:0 Channels:0
Video driver: x11
A window manager is available
(Desktop resolution = 3840x1080)
Checking video mode 320x240@32bpp : OK 
saved image to:/home/xxx/Image.jpg ...OK 
Shuting Down Thread
Thread terminated...
cleaning Thread allocations: 100%
SDL Quit
Video Thread finished
write /home/xxx/.guvcviewrc OK
free audio mutex
closed v4l2 strutures
free controls
free controls - vidState
cleaned allocations - 100%
Closing portaudio ...OK
Closing GTK... OK

$ ffmpeg -r 15 -f video4linux2 -s 320x240 -i /dev/video0 -vframes 1 test1.jpg
FFmpeg version SVN-r24044, Copyright (c) 2000-2010 the FFmpeg developers
  built on Jul 21 2010 15:03:32 with gcc 4.5.0 20100716 (Red Hat 4.5.0-3)
  configuration: --prefix=/usr --bindir=/usr/bin --datadir=/usr/share/ffmpeg --incdir=/usr/include/ffmpeg --libdir=/usr/lib64 --mandir=/usr/share/man --arch=x86_64 --extra-cflags='-O2 -g -pipe -Wall -Wp,-D_FORTIFY_SOURCE=2 -fexceptions -fstack-protector --param=ssp-buffer-size=4 -m64 -mtune=generic' --extra-version=rpmfusion --enable-bzlib --enable-libdc1394 --enable-libdirac --enable-libgsm --enable-libmp3lame --enable-libopenjpeg --enable-librtmp --enable-libschroedinger --enable-libspeex --enable-libtheora --enable-libvorbis --enable-libvpx --enable-libx264 --enable-libxvid --enable-x11grab --enable-avfilter --enable-avfilter-lavf --enable-postproc --enable-pthreads --disable-static --enable-shared --enable-gpl --disable-debug --disable-stripping --shlibdir=/usr/lib64 --enable-runtime-cpudetect
  libavutil     50.20. 0 / 50.20. 0
  libavcodec    52.79. 1 / 52.79. 1
  libavformat   52.73. 0 / 52.73. 0
  libavdevice   52. 2. 0 / 52. 2. 0
  libavfilter    1.20. 1 /  1.20. 1
  libswscale     0.11. 0 /  0.11. 0
  libpostproc   51. 2. 0 / 51. 2. 0
[video4linux2 @ 0x11856c0] Estimating duration from bitrate, this may be inaccurate
Input #0, video4linux2, from '/dev/video0':
  Duration: N/A, start: 28062.273480, bitrate: 18432 kb/s
    Stream #0.0: Video: rawvideo, yuyv422, 320x240, 18432 kb/s, 15 tbr, 1000k tbn, 15 tbc
[ffmpeg_output @ 0x1192090] auto-inserting filter 'auto-inserted scaler 0' between the filter 'src' and the filter 'out'
[scale @ 0x11910b0] w:320 h:240 fmt:yuyv422 -> w:320 h:240 fmt:yuvj420p flags:0x4
Output #0, image2, to 'test1.jpg':
  Metadata:
    encoder         : Lavf52.73.0
    Stream #0.0: Video: mjpeg, yuvj420p, 320x240, q=2-31, 200 kb/s, 90k tbn, 15 tbc
Stream mapping:
  Stream #0.0 -> #0.0
Press [q] to stop encoding
frame=    1 fps=  0 q=3.3 Lsize=      -0kB time=0.07 bitrate=  -2.6kbits/s    
video:5kB audio:0kB global headers:0kB muxing overhead -100.428683%


$ ffmpeg -r 15 -f video4linux2 -s 320x240 -i /dev/video0 -t 10 test1.webm
FFmpeg version SVN-r24044, Copyright (c) 2000-2010 the FFmpeg developers
  built on Jul 21 2010 15:03:32 with gcc 4.5.0 20100716 (Red Hat 4.5.0-3)
  configuration: --prefix=/usr --bindir=/usr/bin --datadir=/usr/share/ffmpeg --incdir=/usr/include/ffmpeg --libdir=/usr/lib64 --mandir=/usr/share/man --arch=x86_64 --extra-cflags='-O2 -g -pipe -Wall -Wp,-D_FORTIFY_SOURCE=2 -fexceptions -fstack-protector --param=ssp-buffer-size=4 -m64 -mtune=generic' --extra-version=rpmfusion --enable-bzlib --enable-libdc1394 --enable-libdirac --enable-libgsm --enable-libmp3lame --enable-libopenjpeg --enable-librtmp --enable-libschroedinger --enable-libspeex --enable-libtheora --enable-libvorbis --enable-libvpx --enable-libx264 --enable-libxvid --enable-x11grab --enable-avfilter --enable-avfilter-lavf --enable-postproc --enable-pthreads --disable-static --enable-shared --enable-gpl --disable-debug --disable-stripping --shlibdir=/usr/lib64 --enable-runtime-cpudetect
  libavutil     50.20. 0 / 50.20. 0
  libavcodec    52.79. 1 / 52.79. 1
  libavformat   52.73. 0 / 52.73. 0
  libavdevice   52. 2. 0 / 52. 2. 0
  libavfilter    1.20. 1 /  1.20. 1
  libswscale     0.11. 0 /  0.11. 0
  libpostproc   51. 2. 0 / 51. 2. 0
[video4linux2 @ 0xdab6c0] Estimating duration from bitrate, this may be inaccurate
Input #0, video4linux2, from '/dev/video0':
  Duration: N/A, start: 28762.746838, bitrate: 18432 kb/s
    Stream #0.0: Video: rawvideo, yuyv422, 320x240, 18432 kb/s, 15 tbr, 1000k tbn, 15 tbc
[ffmpeg_output @ 0xdbeb90] auto-inserting filter 'auto-inserted scaler 0' between the filter 'src' and the filter 'out'
[scale @ 0xdbee80] w:320 h:240 fmt:yuyv422 -> w:320 h:240 fmt:yuv420p flags:0x4
[libvpx @ 0xdae1b0] v0.9.6
Output #0, webm, to 'test1.webm':
  Metadata:
    encoder         : Lavf52.73.0
    Stream #0.0: Video: libvpx, yuv420p, 320x240, q=2-31, 200 kb/s, 1k tbn, 15 tbc
Stream mapping:
  Stream #0.0 -> #0.0
Press [q] to stop encoding
frame=   26 fps=  0 q=0.0 size=      39kB time=3.67 bitrate=  86.2kbits/s dup=0 frame=   34 fps= 30 q=0.0 size=      39kB time=4.20 bitrate=  75.2kbits/s dup=0 frame=   42 fps= 25 q=0.0 size=      57kB time=4.73 bitrate=  98.4kbits/s dup=0 frame=   50 fps= 23 q=0.0 size=      76kB time=5.27 bitrate= 118.5kbits/s dup=0 frame=   58 fps= 21 q=0.0 size=      76kB time=5.80 bitrate= 107.6kbits/s dup=0 frame=   66 fps= 20 q=0.0 size=      96kB time=6.33 bitrate= 123.8kbits/s dup=0 frame=   74 fps= 20 q=0.0 size=     115kB time=6.87 bitrate= 137.0kbits/s dup=0 frame=   82 fps= 19 q=0.0 size=     115kB time=7.40 bitrate= 127.1kbits/s dup=0 frame=   90 fps= 19 q=0.0 size=     133kB time=7.93 bitrate= 137.7kbits/s dup=0 frame=   98 fps= 18 q=0.0 size=     153kB time=8.47 bitrate= 148.2kbits/s dup=0 frame=  106 fps= 18 q=0.0 size=     153kB time=9.00 bitrate= 139.4kbits/s dup=0 frame=  114 fps= 18 q=0.0 size=     173kB time=9.53 bitrate= 148.3kbits/s dup=0 frame=  122 fps= 17 q=0.0 size=     192kB time=10.07 bitrate= 155.9kbits/s dup=0frame=  122 fps= 17 q=0.0 Lsize=     198kB time=10.07 bitrate= 161.2kbits/s dup=0 drop=118    
video:197kB audio:0kB global headers:0kB muxing overhead 0.814467%

$ cat /proc/asound/cards
 0 [SB             ]: HDA-Intel - HDA ATI SB
                      HDA ATI SB at 0xfe7f8000 irq 16
 1 [HDMI           ]: HDA-Intel - HDA ATI HDMI
                      HDA ATI HDMI at 0xfe9e8000 irq 19
$ cat /proc/asound/devices
  2:        : timer
  3:        : sequencer
  4: [ 0- 1]: digital audio playback
  5: [ 0- 0]: digital audio playback
  6: [ 0- 0]: digital audio capture
  7: [ 0- 0]: hardware dependent
  8: [ 0]   : control
  9: [ 1- 3]: digital audio playback
 10: [ 1- 0]: hardware dependent
 11: [ 1]   : control
 
$ arecord -l
**** List of CAPTURE Hardware Devices ****
card 0: SB [HDA ATI SB], device 0: ALC662 rev1 Analog [ALC662 rev1 Analog]
  Subdevices: 1/1
  Subdevice #0: subdevice #0
 

$ ffmpeg -f alsa -ac 2 -i hw:0,0 -t 10 test1.wav
FFmpeg version SVN-r24044, Copyright (c) 2000-2010 the FFmpeg developers
  built on Jul 21 2010 15:03:32 with gcc 4.5.0 20100716 (Red Hat 4.5.0-3)
  configuration: --prefix=/usr --bindir=/usr/bin --datadir=/usr/share/ffmpeg --incdir=/usr/include/ffmpeg --libdir=/usr/lib64 --mandir=/usr/share/man --arch=x86_64 --extra-cflags='-O2 -g -pipe -Wall -Wp,-D_FORTIFY_SOURCE=2 -fexceptions -fstack-protector --param=ssp-buffer-size=4 -m64 -mtune=generic' --extra-version=rpmfusion --enable-bzlib --enable-libdc1394 --enable-libdirac --enable-libgsm --enable-libmp3lame --enable-libopenjpeg --enable-librtmp --enable-libschroedinger --enable-libspeex --enable-libtheora --enable-libvorbis --enable-libvpx --enable-libx264 --enable-libxvid --enable-x11grab --enable-avfilter --enable-avfilter-lavf --enable-postproc --enable-pthreads --disable-static --enable-shared --enable-gpl --disable-debug --disable-stripping --shlibdir=/usr/lib64 --enable-runtime-cpudetect
  libavutil     50.20. 0 / 50.20. 0
  libavcodec    52.79. 1 / 52.79. 1
  libavformat   52.73. 0 / 52.73. 0
  libavdevice   52. 2. 0 / 52. 2. 0
  libavfilter    1.20. 1 /  1.20. 1
  libswscale     0.11. 0 /  0.11. 0
  libpostproc   51. 2. 0 / 51. 2. 0
[alsa @ 0xc196c0] Estimating duration from bitrate, this may be inaccurate
Input #0, alsa, from 'hw:0,0':
  Duration: N/A, start: 449231.232922, bitrate: N/A
    Stream #0.0: Audio: pcm_s16le, 44100 Hz, 2 channels, s16, 1411 kb/s
File 'test1.wav' already exists. Overwrite ? [y/N] y
Output #0, wav, to 'test1.wav':
  Metadata:
    encoder         : Lavf52.73.0
    Stream #0.0: Audio: pcm_s16le, 44100 Hz, 2 channels, s16, 1411 kb/s
Stream mapping:
  Stream #0.0 -> #0.0
Press [q] to stop encoding
size=    1728kB time=10.03 bitrate=1411.2kbits/s    
video:0kB audio:1728kB global headers:0kB muxing overhead 0.002487%

[lin@localhost raw]$ ffmpeg -r 15 -f video4linux2 -s 320x240 -i /dev/video0 -f alsa -ac 2 -i hw:0,0 -t 10 test2.webm
FFmpeg version SVN-r24044, Copyright (c) 2000-2010 the FFmpeg developers
  built on Jul 21 2010 15:03:32 with gcc 4.5.0 20100716 (Red Hat 4.5.0-3)
  configuration: --prefix=/usr --bindir=/usr/bin --datadir=/usr/share/ffmpeg --incdir=/usr/include/ffmpeg --libdir=/usr/lib64 --mandir=/usr/share/man --arch=x86_64 --extra-cflags='-O2 -g -pipe -Wall -Wp,-D_FORTIFY_SOURCE=2 -fexceptions -fstack-protector --param=ssp-buffer-size=4 -m64 -mtune=generic' --extra-version=rpmfusion --enable-bzlib --enable-libdc1394 --enable-libdirac --enable-libgsm --enable-libmp3lame --enable-libopenjpeg --enable-librtmp --enable-libschroedinger --enable-libspeex --enable-libtheora --enable-libvorbis --enable-libvpx --enable-libx264 --enable-libxvid --enable-x11grab --enable-avfilter --enable-avfilter-lavf --enable-postproc --enable-pthreads --disable-static --enable-shared --enable-gpl --disable-debug --disable-stripping --shlibdir=/usr/lib64 --enable-runtime-cpudetect
  libavutil     50.20. 0 / 50.20. 0
  libavcodec    52.79. 1 / 52.79. 1
  libavformat   52.73. 0 / 52.73. 0
  libavdevice   52. 2. 0 / 52. 2. 0
  libavfilter    1.20. 1 /  1.20. 1
  libswscale     0.11. 0 /  0.11. 0
  libpostproc   51. 2. 0 / 51. 2. 0
[video4linux2 @ 0x22ea6c0] Estimating duration from bitrate, this may be inaccurate
Input #0, video4linux2, from '/dev/video0':
  Duration: N/A, start: 32614.348576, bitrate: 18432 kb/s
    Stream #0.0: Video: rawvideo, yuyv422, 320x240, 18432 kb/s, 15 tbr, 1000k tbn, 15 tbc
[alsa @ 0x22ebf50] Estimating duration from bitrate, this may be inaccurate
Input #1, alsa, from 'hw:0,0':
  Duration: N/A, start: 450907.916688, bitrate: N/A
    Stream #1.0: Audio: pcm_s16le, 44100 Hz, 2 channels, s16, 1411 kb/s
[ffmpeg_output @ 0x2307720] auto-inserting filter 'auto-inserted scaler 0' between the filter 'src' and the filter 'out'
[scale @ 0x23079e0] w:320 h:240 fmt:yuyv422 -> w:320 h:240 fmt:yuv420p flags:0x4
[libvpx @ 0x2306ad0] v0.9.6
Output #0, webm, to 'test2.webm':
  Metadata:
    encoder         : Lavf52.73.0
    Stream #0.0: Video: libvpx, yuv420p, 320x240, q=2-31, 200 kb/s, 1k tbn, 15 tbc
    Stream #0.1: Audio: libvorbis, 44100 Hz, 2 channels, s16, 64 kb/s
Stream mapping:
  Stream #0.0 -> #0.0
  Stream #1.0 -> #0.1
Press [q] to stop encoding
frame=   22 fps=  0 q=0.0 size=       4kB time=0.69 bitrate=  51.0kbits/s dup=0 frame=   30 fps= 27 q=0.0 size=      36kB time=1.43 bitrate= 207.9kbits/s dup=0 frame=   38 fps= 23 q=0.0 size=      49kB time=2.17 bitrate= 183.6kbits/s dup=0 frame=   46 fps= 21 q=0.0 size=      49kB time=2.17 bitrate= 183.6kbits/s dup=0 frame=   54 fps= 20 q=0.0 size=      73kB time=2.92 bitrate= 205.7kbits/s dup=0 frame=   62 fps= 19 q=0.0 size=      98kB time=3.66 bitrate= 219.6kbits/s dup=0 frame=   70 fps= 19 q=0.0 size=     124kB time=4.40 bitrate= 229.9kbits/s dup=0 frame=   78 fps= 18 q=0.0 size=     124kB time=4.40 bitrate= 229.9kbits/s dup=0 frame=   86 fps= 18 q=0.0 size=     149kB time=5.15 bitrate= 237.3kbits/s dup=0 frame=   94 fps= 18 q=0.0 size=     174kB time=5.89 bitrate= 242.1kbits/s dup=0 frame=  102 fps= 17 q=0.0 size=     174kB time=5.89 bitrate= 242.1kbits/s dup=0 frame=  110 fps= 17 q=0.0 size=     200kB time=6.63 bitrate= 246.6kbits/s dup=0 frame=  118 fps= 17 q=0.0 size=     224kB time=7.37 bitrate= 249.0kbits/s dup=0 frame=  126 fps= 17 q=0.0 size=     249kB time=8.12 bitrate= 251.2kbits/s dup=0 frame=  133 fps= 17 q=0.0 size=     249kB time=8.12 bitrate= 251.2kbits/s dup=0 frame=  142 fps= 17 q=0.0 size=     274kB time=8.86 bitrate= 253.1kbits/s dup=0 frame=  150 fps= 17 q=0.0 size=     299kB time=9.60 bitrate= 254.8kbits/s dup=0 frame=  151 fps= 16 q=0.0 size=     299kB time=9.79 bitrate= 250.0kbits/s dup=0 frame=  151 fps= 15 q=0.0 size=     299kB time=10.07 bitrate= 243.0kbits/s dup=0frame=  151 fps= 15 q=0.0 Lsize=     318kB time=10.07 bitrate= 258.6kbits/s dup=0 drop=149    
video:242kB audio:66kB global headers:4kB muxing overhead 1.600095%
